<svg xmlns="http://www.w3.org/2000/svg" width="256" height="256" viewBox="0 0 256 256" class="fill-primary" fill="none">
<path xmlns="http://www.w3.org/2000/svg" d="M128 256C198.692 256 256 198.692 256 128C256 57.3076 198.692 0 128 0C57.3076 0 0 57.3076 0 128C0 198.692 57.3076 256 128 256Z" fill="white"/>
<path d="M256 128C256 153.316 248.493 178.063 234.428 199.113C220.363 220.162 200.372 236.569 176.983 246.257C153.595 255.945 127.858 258.479 103.028 253.541C78.1989 248.602 55.3914 236.411 37.4903 218.51C19.5892 200.609 7.39839 177.801 2.45948 152.972C-2.47942 128.142 0.055403 102.405 9.74342 79.0165C19.4314 55.6276 35.8375 35.6367 56.887 21.5719C77.9365 7.50707 102.684 -3.0189e-07 128 0L128 12.8C105.216 12.8 82.9428 19.5564 63.9983 32.2147C45.0538 44.873 30.2883 62.8648 21.5691 83.9149C12.8499 104.965 10.5685 128.128 15.0135 150.474C19.4586 172.821 30.4303 193.348 46.5413 209.459C62.6523 225.57 83.179 236.541 105.526 240.986C127.872 245.431 151.035 243.15 172.085 234.431C193.135 225.712 211.127 210.946 223.785 192.002C236.444 173.057 243.2 150.784 243.2 128H256Z" fill="#5A6EA0"/>
<path d="M146.95 1.41055C174.252 5.49753 199.5 18.3014 218.929 37.9121C238.359 57.5228 250.927 82.8893 254.76 110.228L242.084 112.005C238.634 87.4004 227.323 64.5705 209.837 46.9209C192.35 29.2713 169.627 17.7478 145.055 14.0695L146.95 1.41055Z" fill="#E87961"/>
<path d="M40.1292 64.5778C49.361 51.7872 61.274 41.1662 75.0359 33.4566C88.7978 25.7471 104.077 21.1349 119.806 19.9421C135.535 18.7494 151.335 21.0049 166.102 26.5511C180.869 32.0973 194.247 40.8005 205.302 52.0528C216.357 63.3051 224.823 76.8352 230.107 91.6981C235.391 106.561 237.367 122.398 235.896 138.104C234.425 153.809 229.544 169.004 221.592 182.628C213.64 196.251 202.81 207.974 189.858 216.979L183.672 208.081C195.329 199.977 205.076 189.426 212.233 177.165C219.389 164.904 223.783 151.228 225.106 137.093C226.43 122.958 224.652 108.705 219.896 95.3283C215.14 81.9517 207.522 69.7746 197.572 59.6475C187.623 49.5205 175.582 41.6876 162.292 36.696C149.001 31.7044 134.782 29.6745 120.625 30.7479C106.469 31.8214 92.718 35.9724 80.3323 42.911C67.9466 49.8496 57.2249 59.4085 48.9163 70.9201L40.1292 64.5778Z" fill="#FFBD7A"/>
<path d="M166.003 229.486C139.087 239.565 109.27 238.539 83.1107 226.634L87.5996 216.77C111.143 227.485 137.978 228.409 162.203 219.337L166.003 229.486Z" fill="#E87961"/>
<path d="M72.4877 221.07C60.2656 213.78 49.599 204.154 41.097 192.742C32.595 181.33 26.424 168.354 22.9364 154.557C19.4489 140.76 18.713 126.411 20.7709 112.33C22.8287 98.2482 27.64 84.7099 34.9299 72.4877L44.237 78.039C37.676 89.0389 33.3458 101.223 31.4938 113.897C29.6417 126.57 30.304 139.484 33.4428 151.902C36.5816 164.319 42.1355 175.997 49.7873 186.268C57.4391 196.539 67.039 205.202 78.039 211.763L72.4877 221.07Z" fill="#459292"/>
<path d="M129.446 39.2756C146.066 39.5464 162.277 44.4803 176.23 53.5151C190.183 62.5499 201.318 75.3223 208.366 90.3771C215.413 105.432 218.091 122.164 216.093 138.666C214.095 155.168 207.502 170.778 197.065 183.715C186.628 196.653 172.766 206.399 157.06 211.843C141.354 217.287 124.434 218.209 108.229 214.506C92.0245 210.802 77.1856 202.621 65.4035 190.895C53.6215 179.169 45.3701 164.369 41.5894 148.182L50.2305 146.164C53.6331 160.732 61.0593 174.052 71.6632 184.606C82.267 195.159 95.622 202.522 110.207 205.855C124.791 209.188 140.019 208.358 154.154 203.459C168.29 198.559 180.765 189.788 190.158 178.144C199.552 166.5 205.485 152.451 207.284 137.599C209.082 122.747 206.672 107.689 200.329 94.1394C193.986 80.5901 183.965 69.0949 171.407 60.9636C158.849 52.8322 144.26 48.3917 129.301 48.148L129.446 39.2756Z" fill="#5A6EA0"/>
<path d="M39.3833 132.603C38.2522 110.825 45.1799 89.3932 58.8442 72.398C72.5085 55.4028 91.9526 44.0343 113.465 40.4623L114.919 49.2161C95.5573 52.4309 78.0577 62.6625 65.7598 77.9582C53.4619 93.2539 47.227 112.542 48.245 132.142L39.3833 132.603Z" fill="#459292"/>
<path d="M179.315 173.197C172.361 181.092 163.679 187.276 153.945 191.268C144.21 195.26 133.686 196.952 123.191 196.212C112.696 195.472 102.513 192.32 93.4353 187.002C84.3573 181.684 76.6289 174.343 70.8515 165.55C65.074 156.757 61.4034 146.75 60.1253 136.307C58.8472 125.864 59.9961 115.267 63.4825 105.34C66.9689 95.4135 72.6989 86.4253 80.2264 79.0749C87.754 71.7246 96.8761 66.2103 106.883 62.9612L108.995 69.4651C99.9885 72.3893 91.7786 77.3521 85.0038 83.9674C78.229 90.5828 73.072 98.6722 69.9343 107.606C66.7965 116.54 65.7625 126.078 66.9128 135.476C68.0631 144.875 71.3666 153.882 76.5663 161.795C81.766 169.709 88.7216 176.316 96.8918 181.102C105.062 185.888 114.226 188.725 123.672 189.391C133.117 190.057 142.589 188.534 151.35 184.941C160.111 181.349 167.925 175.783 174.183 168.677L179.315 173.197Z" fill="#E87961"/>
<rect x="118.184" y="62.0368" width="19.2393" height="76.5644" rx="9.61963" fill="black" fill-opacity="0.4"/>
<rect x="115.102" y="133.858" width="19.2393" height="73.0189" rx="9.61963" transform="rotate(-65.9935 115.102 133.858)" fill="black" fill-opacity="0.4"/>
</svg>